ply
format ascii 1.0
comment Created by Blender 2.92.0 - www.blender.org
element vertex 32
property float x
property float y
property float z
property uchar red
property uchar green
property uchar blue
property uchar alpha
element face 60
property list uchar uint vertex_indices
end_header
-1.000000 -0.904238 0.904238 255 60 209 255
-1.000000 0.904238 -0.904238 255 60 209 255
-1.000000 -0.904238 -0.904238 255 60 209 255
-0.904238 1.000000 0.904238 255 63 210 255
0.904238 1.000000 -0.904238 255 60 209 255
-0.904238 1.000000 -0.904238 255 60 209 255
1.000000 0.904238 0.904238 255 63 210 255
1.000000 -0.904238 -0.904238 255 60 209 255
1.000000 0.904238 -0.904238 255 60 209 255
0.904238 -1.000000 0.904238 255 60 209 255
-0.904238 -1.000000 -0.904238 255 60 209 255
0.904238 -1.000000 -0.904238 255 60 209 255
0.904238 0.904238 -1.000000 255 60 209 255
-0.904238 -0.904238 -1.000000 255 62 210 255
-0.904238 0.904238 -1.000000 255 60 209 255
-0.904238 0.904238 1.000000 255 60 209 255
0.904238 -0.904238 1.000000 255 60 209 255
0.904238 0.904238 1.000000 255 60 209 255
-1.000000 -1.000000 1.000000 255 255 255 255
-1.000000 -1.000000 -1.000000 255 255 255 255
-1.000000 1.000000 1.000000 255 255 255 255
-1.000000 1.000000 -1.000000 255 255 255 255
-1.000000 0.904238 0.904238 255 60 209 255
1.000000 1.000000 1.000000 255 255 255 255
1.000000 1.000000 -1.000000 255 255 255 255
0.904238 1.000000 0.904238 255 60 209 255
1.000000 -1.000000 1.000000 255 255 255 255
1.000000 -1.000000 -1.000000 255 255 255 255
1.000000 -0.904238 0.904238 255 60 209 255
-0.904238 -1.000000 0.904238 255 60 209 255
0.904238 -0.904238 -1.000000 255 60 209 255
-0.904238 -0.904238 1.000000 255 61 209 255
3 0 1 2
3 3 4 5
3 6 7 8
3 9 10 11
3 12 13 14
3 15 16 17
3 18 2 19
3 20 0 18
3 21 22 20
3 19 1 21
3 20 5 21
3 23 3 20
3 24 25 23
3 21 4 24
3 23 8 24
3 26 6 23
3 27 28 26
3 24 7 27
3 26 11 27
3 18 9 26
3 19 29 18
3 27 10 19
3 24 14 21
3 27 12 24
3 19 30 27
3 21 13 19
3 20 17 23
3 18 15 20
3 26 31 18
3 23 16 26
3 0 22 1
3 3 25 4
3 6 28 7
3 9 29 10
3 12 30 13
3 15 31 16
3 18 0 2
3 20 22 0
3 21 1 22
3 19 2 1
3 20 3 5
3 23 25 3
3 24 4 25
3 21 5 4
3 23 6 8
3 26 28 6
3 27 7 28
3 24 8 7
3 26 9 11
3 18 29 9
3 19 10 29
3 27 11 10
3 24 12 14
3 27 30 12
3 19 13 30
3 21 14 13
3 20 15 17
3 18 31 15
3 26 16 31
3 23 17 16
